<svg xmlns="http://www.w3.org/2000/svg" width="383.5" height="91">
  <circle fill="#F3B961" cx="44.445" cy="46.76" r="40.213"/>
  <circle fill="#E56F30" cx="40.368" cy="42.683" r="36.321"/>
  <circle fill="#E53E42" cx="45.372" cy="38.05" r="31.503"/>
  <circle fill="#BDCF41" cx="47.781" cy="40.459" r="28.909"/>
  <circle fill="#6DB54B" cx="45.743" cy="42.683" r="26.87"/>
  <circle fill="#AFDBE7" cx="41.48" cy="38.236" r="22.423"/>
  <circle fill="#57B9DF" cx="45.001" cy="34.53" r="18.902"/>
  <circle fill="#08B1D5" cx="47.41" cy="37.124" r="16.493"/>
  <radialGradient id="a" cx="-1008.214" cy="578.731" r="3.411" gradientTransform="translate(4244.926 -2371.293) scale(4.1657)" gradientUnits="userSpaceOnUse">
    <stop offset="0" stop-color="#7a7a7a"/>
    <stop offset="1" stop-color="#4d4d4d"/>
  </radialGradient>
  <circle fill="url(#a)" cx="45.001" cy="39.348" r="14.084"/>
  <circle fill="#221F1F" cx="45.001" cy="39.348" r="14.084"/>
  <ellipse transform="rotate(-155.839 50.722 34.189)" fill="#FFF" cx="50.722" cy="34.189" rx="2.78" ry="4.448"/>
  <path fill="#010101" d="M97.815 31.564c0-.185.185-.556.556-.556h12.786c7.228 0 10.563 3.335 10.563 8.339 0 3.706-1.853 5.56-4.077 6.671v.186c2.038.741 4.633 3.336 4.633 7.228 0 6.3-4.262 9.266-11.675 9.266h-12.23c-.186 0-.556-.186-.556-.557V31.564zm13.157 12.602c2.965 0 4.818-1.668 4.818-4.077 0-2.594-1.853-4.262-4.818-4.262h-6.857c-.185 0-.185.186-.185.186v7.783c0 .185.185.185.185.185-.185.185 6.857.185 6.857.185zm-7.042 13.343h7.227c3.336 0 5.189-1.669 5.189-4.448s-1.853-4.447-5.189-4.447h-7.227c-.186 0-.186.185-.186.185v8.154c-.184.556.186.556.186.556zM126.353 62.326c-.186 0-.556-.186-.556-.556V40.274c0-.186.185-.556.556-.556h4.633c.185 0 .556.186.556.556v1.853h.186c1.112-1.667 3.335-2.964 6.3-2.964 1.854 0 3.892.741 5.004 1.853.185.186.185.556.185.556l-2.595 3.15c-.185.186-.556.186-.741.186-1.112-.556-2.224-1.112-3.707-1.112-3.15 0-4.632 2.038-4.632 5.745v12.045c0 .186-.185.556-.556.556l-4.633.184zM143.958 56.767c-.556-1.482-.926-2.965-.926-5.56 0-2.594.185-4.076.926-5.559 1.482-4.077 5.003-6.115 10.007-6.115s8.524 2.224 10.007 6.115c.556 1.483.927 2.965.927 5.559 0 2.595-.186 4.077-.927 5.56-1.483 4.077-5.003 6.115-10.007 6.115s-8.711-2.038-10.007-6.115zm14.639-1.297c.557-1.112.557-2.224.557-4.077 0-1.853-.185-2.965-.557-4.077-.741-1.853-2.223-2.964-4.632-2.964-2.224 0-3.892 1.112-4.633 2.964-.556 1.298-.556 2.225-.556 4.077 0 1.854.186 2.965.556 4.077.741 1.853 2.224 2.965 4.633 2.965 2.223 0 3.706-1.113 4.632-2.965zM188.988 62.326c-.185 0-.555-.186-.555-.556L183.8 47.315h-.185l-4.633 14.27c-.186.186-.186.556-.556.556h-4.077c-.186 0-.556-.185-.556-.556l-7.597-21.496c-.186-.185.185-.556.371-.556h4.818c.371 0 .556.185.556.556l4.633 14.825h.186l4.633-14.825c.186-.185.37-.556.556-.556h3.707c.185 0 .556.185.556.556l4.818 14.825h.185l4.447-14.825c.186-.371.186-.556.556-.556h4.818c.186 0 .556.185.37.556l-7.412 21.496c-.185.186-.185.556-.556.556l-4.45.185zM202.331 59.361c-.186-.186-.186-.556 0-.556l2.964-2.78c.187-.185.557-.185.742 0 1.667 1.483 4.633 2.595 7.227 2.595 2.965 0 4.448-1.111 4.448-2.595 0-1.297-.927-2.224-4.077-2.409l-2.595-.185c-4.818-.556-7.412-2.779-7.412-6.486 0-4.263 3.336-7.228 9.266-7.228 3.706 0 6.856 1.111 9.08 2.594.186.186.186.556.186.556l-2.409 2.595c-.186.185-.556.185-.741.185-1.482-.927-4.077-1.853-6.301-1.853-2.409 0-3.706.926-3.706 2.409 0 1.297.927 2.038 4.076 2.409l2.595.186c5.004.556 7.412 2.965 7.412 6.485 0 4.447-3.521 7.598-10.191 7.598-5.005.186-8.526-1.666-10.564-3.52zM226.791 56.767c-.555-1.482-.926-3.15-.926-5.56 0-2.408.186-4.076.926-5.559 1.483-4.077 5.005-6.115 10.008-6.115s8.523 2.409 10.007 6.115c.556 1.483.926 3.151.926 6.857 0 .186-.185.556-.556.556H231.98c-.185 0-.185.186-.185.186 0 .556.185 1.297.37 1.668.927 2.224 2.594 3.336 5.374 3.336 2.779 0 4.447-.928 5.744-2.039.186-.186.557-.186.927-.186l2.965 2.409c.186.186.186.556.186.556-2.039 2.225-5.56 3.892-10.007 3.892-5.558.184-9.265-2.039-10.563-6.116zm14.64-10.007c-.556-1.853-2.408-2.964-4.632-2.964-2.225 0-4.077 1.112-4.818 2.964-.185.556-.185 1.112-.185 1.854 0 .185.185.185.185.185h9.637c.185 0 .185-.185.185-.185-.186-.557-.186-1.299-.372-1.854zM251.438 62.326c-.185 0-.556-.186-.556-.556V40.274c0-.186.186-.556.556-.556h4.634c.185 0 .556.186.556.556v1.853h.185c1.112-1.667 3.337-2.964 6.301-2.964 1.854 0 3.893.741 5.004 1.853.186.186.186.556.186.556l-2.595 3.15c-.186.186-.556.186-.741.186-1.111-.556-2.224-1.112-3.706-1.112-3.15 0-4.633 2.038-4.633 5.745v12.045c0 .186-.186.556-.556.556l-4.635.184zM269.043 58.99c-.186-.185-.186-.556-.186-.74l3.15-3.336c.186-.186.556-.186.741-.186 2.224 1.668 5.56 3.336 9.266 3.336 4.077 0 6.486-1.854 6.486-4.633 0-2.225-1.483-3.706-6.115-4.448l-1.854-.185c-6.486-.927-10.192-3.706-10.192-8.895 0-5.745 4.633-9.637 11.49-9.637 4.262 0 8.338 1.297 10.933 3.15.186.186.186.371.186.556l-2.409 3.335c-.186.186-.556.186-.741.186-2.78-1.668-5.374-2.409-8.153-2.409-3.521 0-5.375 1.668-5.375 4.262 0 2.224 1.668 3.706 6.301 4.262l1.854.185c6.485.927 10.192 3.706 10.192 9.266s-4.448 9.821-12.787 9.821c-5.375.187-10.193-1.666-12.787-3.89zM304.808 62.882c-4.818 0-6.856-2.224-6.856-6.485v-11.86c0-.185-.186-.185-.186-.185h-1.482c-.185 0-.556-.185-.556-.556v-3.15c0-.186.186-.556.556-.556h1.482c.186 0 .186-.185.186-.185V33.79c0-.186.186-.556.556-.556h4.633c.186 0 .556.185.556.556v6.115c0 .185.187.185.187.185h3.335c.185 0 .556.185.556.556v3.15c0 .185-.185.556-.556.556h-3.335c-.187 0-.187.185-.187.185v11.675c0 1.482.742 2.039 2.225 2.039h1.297c.185 0 .556.185.556.556v3.706c0 .185-.185.556-.556.556l-2.411-.187zM326.119 62.326c-.186 0-.557-.186-.557-.556v-1.668c-1.111 1.482-3.335 2.595-6.856 2.595-4.447 0-8.153-2.039-8.153-6.857 0-4.817 3.706-7.227 9.636-7.227h4.818c.185 0 .185-.186.185-.186v-1.112c0-2.594-1.297-3.706-5.373-3.706-2.595 0-4.448.742-5.561 1.483-.185.185-.555.185-.74-.186l-1.854-2.965c-.186-.185-.186-.556.186-.556 1.853-1.297 4.633-2.223 8.524-2.223 7.412 0 10.007 2.409 10.007 7.783v14.454c0 .186-.186.557-.556.557l-3.706.37zm-.557-7.412v-1.668c0-.186-.185-.186-.185-.186H321.3c-3.706 0-5.188.927-5.188 2.965 0 1.853 1.482 2.78 4.262 2.78 3.15-.185 5.188-1.296 5.188-3.891zM335.199 56.767c-.557-1.482-.927-3.15-.927-5.56 0-2.408.185-4.076.927-5.559 1.482-4.077 5.188-6.115 10.007-6.115 3.706 0 6.485 1.297 8.339 3.521.186.186.186.556-.186.556l-3.15 2.594c-.186.186-.556.186-.741-.186-1.297-1.297-2.409-1.853-4.447-1.853-2.224 0-3.892.927-4.633 2.965-.556 1.111-.556 2.409-.556 4.076 0 1.669.185 2.966.556 4.263.741 1.853 2.409 2.965 4.633 2.965 2.038 0 3.335-.741 4.447-1.853.186-.186.556-.186.741-.186l3.15 2.594c.186.186.186.557.186.557-1.854 2.038-4.818 3.335-8.339 3.335-4.818.186-8.524-2.037-10.007-6.114zM373.188 62.326c-.37 0-.556-.186-.927-.556l-6.114-9.266-3.336 3.521v5.745c0 .186-.186.556-.556.556h-4.633c-.186 0-.557-.186-.557-.556V31.194c0-.185.186-.556.557-.556h4.633c.185 0 .556.186.556.556v18.161l8.339-8.895a1.02 1.02 0 0 1 .927-.556h5.188c.185 0 .556.185.185.556l-7.782 8.154 8.709 13.343c.186.185.186.556-.185.556l-5.004-.187z"/>
</svg>
